<?xml version="1.0" encoding="utf-8"?>
<!-- Generator: Adobe Illustrator 21.0.2, SVG Export Plug-In . SVG Version: 6.00 Build 0)  -->
<svg version="1.1" id="레이어_1" xmlns="http://www.w3.org/2000/svg" xmlns:xlink="http://www.w3.org/1999/xlink" x="0px"
	 y="0px" viewBox="0 0 1000 1000" style="enable-background:new 0 0 1000 1000;" xml:space="preserve">
<style type="text/css">
	.st0{fill:#FFFFFF;}
	.st1{fill:#0072DF;}
	.st2{fill:none;stroke:#0072DF;stroke-width:5;stroke-miterlimit:10;}
	.st3{fill:none;stroke:#0072DF;stroke-width:3;stroke-miterlimit:10;}
	.st4{fill:#0072DF;stroke:#0072DF;stroke-miterlimit:10;}
</style>
<path class="st0" d="M485,951L48.7,514.7c-8.2-8.2-8.2-21.5,0-29.7L485,48.8c8.2-8.2,21.5-8.2,29.7,0L950.9,485
	c8.2,8.2,8.2,21.5,0,29.7L514.7,951C506.5,959.2,493.2,959.2,485,951z"/>
<g>
	<circle class="st1" cx="389.9" cy="390.6" r="23.6"/>
</g>
<path class="st0" d="M399.5,452.7c3.3,8,9.4,19.1,21,24.5c21,10,41.8-7.2,71.7-12.2c40.5-7,57.9,26.4,82.1,15.7
	c14.5-6.5,18.5-8.4,22.7-22.7"/>
<path class="st2" d="M387.3,456.5c20.1,19.6,37.4,23.9,48.9,24.5c23.8,1.2,35.8-12.4,64.7-13.5c23.8-0.9,28.7,10.8,50,11.2
	c15.6,0.3,35.3-4.7,58.4-23.1"/>
<g>
	<circle class="st1" cx="610.1" cy="390.6" r="23.6"/>
</g>
<path class="st3" d="M317.4,527.8"/>
<path class="st4" d="M311.2,510.5l-35.5-11c-2.8-0.9-4.4-3.8-3.5-6.6l0,0c0.9-2.8,3.8-4.4,6.6-3.5l35.5,11c2.8,0.9,4.4,3.8,3.5,6.6
	l0,0C316.8,509.8,313.9,511.4,311.2,510.5z"/>
<path class="st4" d="M302.2,551.1l-41.9-2.6c-2.8-0.2-5.1-2.6-4.9-5.6l0,0c0.2-2.8,2.6-5.1,5.6-4.9l41.9,2.6
	c2.8,0.2,5.1,2.6,4.9,5.6l0,0C307.6,549,304.9,551.2,302.2,551.1z"/>
<path class="st4" d="M317.4,576.9l-33,16.4c-2.6,1.2-5.8,0.2-7-2.3l0,0c-1.2-2.6-0.2-5.8,2.3-7l33-16.4c2.6-1.2,5.8-0.2,7,2.3l0,0
	C320.9,572.6,319.8,575.7,317.4,576.9z"/>
<path class="st4" d="M716.7,590.9l-35.5-11c-2.8-0.9-4.4-3.8-3.5-6.6l0,0c0.9-2.8,3.8-4.4,6.6-3.5l35.5,11c2.8,0.9,4.4,3.8,3.5,6.6
	l0,0C722.3,590.2,719.3,591.8,716.7,590.9z"/>
<path class="st4" d="M727.4,555.4l-37.1-2.4c-2.8-0.2-5.1-2.6-4.9-5.6l0,0c0.2-2.8,2.6-5.1,5.6-4.9l37.1,2.4
	c2.8,0.2,5.1,2.6,4.9,5.6l0,0C732.8,553.3,730.4,555.6,727.4,555.4z"/>
<path class="st4" d="M714.5,510l-36.4,7.7c-2.8,0.5-5.6-1.2-6.3-4l0,0c-0.5-2.8,1.2-5.6,4-6.3l36.5-7.5c2.8-0.5,5.6,1.2,6.3,4l0,0
	C719.2,506.7,717.2,509.5,714.5,510z"/>
</svg>
